<svg xmlns="http://www.w3.org/2000/svg" width="64" height="64" viewBox="0 0 64 64" version="1.1"><path d="M 14.206 25.198 L 14.500 32.396 24.702 36.478 L 34.904 40.560 24.452 44.494 L 14 48.429 14 55.714 C 14 59.722, 14.338 62.967, 14.750 62.927 C 15.162 62.887, 23.150 59.374, 32.500 55.120 L 49.500 47.385 49.786 39.942 L 50.072 32.500 40.286 28.381 C 26.178 22.443, 15.133 18, 14.479 18 C 14.167 18, 14.045 21.239, 14.206 25.198" stroke="none" fill="#04a39c" fill-rule="evenodd"/><path d="M 31 9.639 C 21.925 13.822, 14.396 17.331, 14.269 17.436 C 14.143 17.542, 17.429 19.043, 21.573 20.773 L 29.108 23.918 39.554 19.793 L 50 15.668 50 8.834 C 50 4.025, 49.630 2.005, 48.750 2.017 C 48.063 2.026, 40.075 5.456, 31 9.639" stroke="none" fill="#5bd3cb" fill-rule="evenodd"/></svg>
